<?xml version="1.0" encoding="UTF-8" standalone="no"?>
<!DOCTYPE svg PUBLIC "-//W3C//DTD SVG 1.1//EN" "http://www.w3.org/Graphics/SVG/1.1/DTD/svg11.dtd">
<svg width="100%" height="100%" viewBox="0 0 1000 1000" version="1.1" xmlns="http://www.w3.org/2000/svg" xmlns:xlink="http://www.w3.org/1999/xlink" xml:space="preserve" xmlns:serif="http://www.serif.com/" style="fill-rule:evenodd;clip-rule:evenodd;stroke-linejoin:round;stroke-miterlimit:2;">
    <g>
        <g transform="matrix(0.707107,-0.707107,0.707107,0.707107,-285.14431,487.520742)">
            <path d="M637.489,501.638L637.489,785.44C637.489,801.316 624.6,814.206 608.724,814.206L324.922,814.206C309.046,814.206 296.156,801.316 296.156,785.44L296.156,501.638C296.156,485.762 309.046,472.872 324.922,472.872L608.724,472.872C624.6,472.872 637.489,485.762 637.489,501.638Z" style="fill:rgb(189,189,189);"/>
        </g>
        <g transform="matrix(0.535071,-0.535071,0.184257,0.184257,97.509931,427.368457)">
            <path d="M637.489,499.369L637.489,787.709C637.489,802.333 633.401,814.206 628.365,814.206L305.28,814.206C300.245,814.206 296.156,802.333 296.156,787.709L296.156,499.369C296.156,484.745 300.245,472.872 305.28,472.872L628.365,472.872C633.401,472.872 637.489,484.745 637.489,499.369Z" style="fill:rgb(189,189,189);"/>
        </g>
        <g transform="matrix(0.508983,0.508983,-0.348468,0.348468,265.035461,-236.875858)">
            <rect x="658.377" y="214.604" width="31.242" height="31.242" style="fill:rgb(189,189,189);"/>
        </g>
        <g transform="matrix(-0.50616,-0.50616,0.348468,-0.348468,664.607099,827.166094)">
            <rect x="658.377" y="214.604" width="31.242" height="31.242" style="fill:rgb(189,189,189);"/>
        </g>
        <g transform="matrix(0.651471,-0.651471,0.184257,0.184257,109.432192,587.698317)">
            <path d="M637.489,499.369L637.489,787.709C637.489,802.333 634.131,814.206 629.995,814.206L303.65,814.206C299.514,814.206 296.156,802.333 296.156,787.709L296.156,499.369C296.156,484.745 299.514,472.872 303.65,472.872L629.995,472.872C634.131,472.872 637.489,484.745 637.489,499.369Z" style="fill:rgb(189,189,189);"/>
        </g>
        <g transform="matrix(0.156962,0.156962,-0.156962,0.156962,644.677754,159.288448)">
            <path d="M109.896,423.811L109.896,423.807L110.852,423.807C110.533,423.807 110.214,423.809 109.896,423.811ZM110.852,423.807L214.874,423.807L214.874,527.829C214.874,470.418 168.264,423.807 110.852,423.807ZM214.874,527.829L214.874,528.786L214.87,528.786C214.873,528.468 214.874,528.149 214.874,527.829Z" style="fill:rgb(189,189,189);"/>
        </g>
        <g transform="matrix(0.156962,0.156962,-0.156962,0.156962,558.551694,73.162388)">
            <path d="M109.896,423.811L109.896,423.807L110.852,423.807C110.533,423.807 110.214,423.809 109.896,423.811ZM110.852,423.807L214.874,423.807L214.874,527.829C214.874,470.418 168.264,423.807 110.852,423.807ZM214.874,527.829L214.874,528.786L214.87,528.786C214.873,528.468 214.874,528.149 214.874,527.829Z" style="fill:rgb(189,189,189);"/>
        </g>
        <g transform="matrix(-0.156962,0.156962,0.156962,0.156962,373.042124,318.577304)">
            <path d="M109.896,423.811L109.896,423.807L110.852,423.807C110.533,423.807 110.214,423.809 109.896,423.811ZM110.852,423.807L214.874,423.807L214.874,527.829C214.874,470.418 168.264,423.807 110.852,423.807ZM214.874,527.829L214.874,528.786L214.87,528.786C214.873,528.468 214.874,528.149 214.874,527.829Z" style="fill:rgb(189,189,189);"/>
        </g>
        <g transform="matrix(0.507095,0.507095,-0.348468,0.348468,352.462971,-149.448348)">
            <rect x="658.377" y="214.604" width="31.242" height="31.242" style="fill:rgb(189,189,189);"/>
        </g>
        <g transform="matrix(0.611942,-0.623167,0.611942,0.623167,61.710288,326.051249)">
            <rect x="45.772" y="505.403" width="165.054" height="165.054" style="fill:white;"/>
        </g>
        <g transform="matrix(0.882525,0,0,0.898714,58.737713,89.175632)">
            <path d="M383.29,582.279L500,465.569C500,465.569 499.466,513.141 465.139,546.887C430.627,580.814 383.29,582.279 383.29,582.279Z" style="fill:rgb(189,189,189);"/>
        </g>
        <g transform="matrix(-0.882525,0,0,0.898714,941.262287,89.175632)">
            <path d="M383.29,582.279L500,465.569C500,465.569 499.466,513.141 465.139,546.887C430.627,580.814 383.29,582.279 383.29,582.279Z" style="fill:rgb(189,189,189);"/>
        </g>
        <g transform="matrix(-0.882525,0,0,-0.898714,941.262287,1135.780283)">
            <path d="M383.29,582.279L500,465.569C500,465.569 499.466,513.141 465.139,546.887C430.627,580.814 383.29,582.279 383.29,582.279Z" style="fill:rgb(189,189,189);"/>
        </g>
        <g transform="matrix(0.882525,0,0,-0.898714,58.737713,1135.780283)">
            <path d="M383.29,582.279L500,465.569C500,465.569 499.466,513.141 465.139,546.887C430.627,580.814 383.29,582.279 383.29,582.279Z" style="fill:rgb(189,189,189);"/>
        </g>
    </g>
</svg>
